<svg width="586" height="772" viewBox="0 0 586 772" fill="none" xmlns="http://www.w3.org/2000/svg">
<path d="M439.046 485.431C444.837 493.248 450.098 496.152 458.631 500.825C462.77 503.091 465.352 503.835 469.658 505.764C473.964 507.693 476.363 508.811 480.685 510.704C487.452 513.667 491.362 515.251 498.226 518.108C505.256 521.035 509.218 523.135 516.269 526.01C522.918 528.721 526.599 530.359 533.307 532.917C539.137 535.139 542.127 537.206 548.335 537.835C551.054 538.11 552.617 538.096 555.335 537.796C558.113 537.49 559.688 537.183 562.326 536.258C565.21 535.247 566.794 534.459 569.307 532.72C571.92 530.911 573.143 530.041 575.279 527.687C577.432 525.316 578.725 523.979 580.244 521.16C581.534 518.766 582.357 517.227 583.208 514.644C584.098 511.943 584.272 510.451 584.67 507.635C585.107 504.542 585.27 501.754 585.121 498.633C584.999 496.09 584.547 495.143 584.088 492.638C583.498 489.419 582.767 487.689 581.544 484.652C579.816 480.358 578.483 478.081 575.987 474.182C572.763 469.149 570.314 466.771 566.422 462.235C560.664 455.525 557.344 451.799 550.832 445.82C545.417 440.849 542.514 437.974 536.763 433.396C530.56 428.458 526.781 425.907 520.198 421.487C514.165 417.436 510.569 415.474 504.146 412.074L504.015 412.005C499.844 409.797 497.061 408.323 492.616 406.637C489.556 405.476 488.335 404.698 485.103 404.178C477.686 402.987 472.894 403.943 465.611 405.785C457.589 407.814 453.022 409.77 446.158 414.392C437.507 420.217 433.049 425.58 429.773 435.481C426.645 444.936 428.135 451.183 429.913 460.981C431.732 471.01 432.979 477.241 439.046 485.431Z" fill="#464C52" stroke="#464C52"/>
<path d="M157.159 479.7C152.733 488.363 148.022 492.093 140.374 498.105C136.665 501.022 134.24 502.181 130.31 504.792C126.38 507.403 124.198 508.901 120.246 511.479C114.058 515.514 110.463 517.72 104.162 521.667C97.7087 525.711 94.1467 528.433 87.6642 532.43C81.5525 536.197 78.1913 538.419 71.9946 542.045C66.6096 545.197 64.0006 547.727 57.9813 549.368C55.3439 550.088 53.7999 550.331 51.0704 550.482C48.279 550.637 46.6755 550.594 43.9209 550.115C40.9097 549.592 39.2182 549.076 36.4533 547.774C33.5777 546.419 32.2288 545.762 29.7341 543.792C27.2207 541.807 25.7256 540.702 23.7636 538.17C22.0974 536.021 21.0319 534.638 19.7676 532.231C18.4458 529.713 18.0281 528.27 17.1729 525.558C16.2331 522.579 15.6134 519.855 15.2472 516.753C14.9488 514.224 15.2394 513.216 15.2797 510.67C15.3316 507.397 15.7688 505.57 16.4749 502.374C17.4736 497.854 18.413 495.388 20.2341 491.133C22.5857 485.638 24.6106 482.888 27.7037 477.774C32.2789 470.209 34.9409 465.987 40.3808 459.018C44.9036 453.224 47.2944 449.911 52.2136 444.45C57.5202 438.558 60.8276 435.42 66.5939 429.977C71.8786 424.989 75.103 422.462 80.8785 418.052L80.9963 417.962C84.7477 415.098 87.2505 413.186 91.3569 410.792C94.1847 409.144 95.2613 408.175 98.3635 407.131C105.483 404.735 110.367 404.89 117.854 405.509C126.101 406.191 130.927 407.368 138.458 410.798C147.95 415.121 153.229 419.677 158.089 428.905C162.73 437.716 162.287 444.123 162.146 454.08C162.002 464.272 161.797 470.623 157.159 479.7Z" fill="#464C52" stroke="#464C52"/>
<path d="M113.723 409.573C116.532 402.795 116.928 398.126 121.723 392.573C127.611 385.754 133.084 380.555 141.723 374.573C153.07 366.716 160.849 364.547 173.723 359.573C185.186 355.144 191.709 352.658 203.723 350.073C220.385 346.488 223.011 346.573 247.223 346.573H309.223C333.436 346.573 352.017 343.899 379.223 346.573C396.347 348.256 406.467 347.934 422.723 353.573C436.007 358.18 443.679 361.371 454.723 370.073C465.155 378.292 470.738 383.983 477.223 395.573C479.925 400.403 481.076 403.427 482.977 408.425L483.223 409.073C486.543 417.796 488.404 424.175 491.223 433.073C495.184 445.573 496.067 448.768 500.223 460.073C503.89 470.047 505.306 475.01 508.723 485.073C511.225 492.441 513.979 497.99 515.723 505.573C517.054 511.361 517.436 514.687 518.223 520.573C519.521 530.281 520.223 545.573 520.223 545.573C520.223 545.573 521.723 560.81 521.723 570.573C521.723 580.336 522.308 583.327 521.723 593.073C521.015 604.871 519.058 614.099 516.223 625.573C513.631 636.064 511.164 641.781 506.944 651.56L506.723 652.073C502.295 662.336 499.905 668.26 493.723 677.573C488.123 686.009 484.302 690.333 477.223 697.573C471.034 703.904 467.463 707.477 460.223 712.573C452.934 717.703 448.301 719.804 440.223 723.573C428.582 729.005 421.527 730.88 409.223 734.573C396.704 738.331 389.588 740.263 376.723 742.573C362.036 745.21 353.606 745.498 338.723 746.573C320.601 747.882 310.391 748.195 292.223 748.073C277.177 747.972 268.738 747.55 253.723 746.573C240.422 745.708 232.921 745.443 219.723 743.573C204.329 741.392 195.404 740.692 180.723 735.573C168.024 731.145 161.44 727.176 149.723 720.573C140.473 715.36 134.932 712.807 126.723 706.073C117.857 698.8 113.693 693.679 106.723 684.573C96.8899 671.726 92.0612 663.661 86.2231 648.573C80.514 633.818 79.5846 624.717 77.2231 609.073C75.1754 595.508 74.5906 587.786 74.2231 574.073C73.8147 558.837 74.2456 550.243 75.7231 535.073C76.9089 522.897 77.3506 515.964 80.2231 504.073C83.2827 491.407 86.7972 484.828 91.2231 472.573C96.3231 458.451 99.7512 450.741 104.723 436.573C108.403 426.085 109.468 419.841 113.723 409.573Z" fill="#464C52" stroke="#464C52"/>
<path d="M82.2229 328.073C95.3232 360.625 103.071 377.734 121.723 394.573C254.433 447.886 332.833 444.431 477.723 396.073C494.91 372.931 503.417 358.549 514.723 328.073C550.723 194.073 477.723 62.5729 311.723 47.5728C286.941 48.9108 273.805 50.4453 251.723 54.5728C110.135 81.1922 53.5906 200.966 82.2229 328.073Z" fill="#464C52" stroke="#464C52"/>
<path d="M268.723 746.073C269.512 748.356 270.227 749.658 270.223 752.073C270.22 753.454 270.14 754.257 269.723 755.573C269.327 756.822 268.223 758.573 268.223 758.573C268.223 758.573 265.723 762.573 260.723 764.573C255.801 766.542 247.063 767.765 238.144 769.014L237.723 769.073C223.585 771.053 215.498 770.955 201.223 771.073C184.413 771.212 161.723 769.26 158.223 769.073C154.723 768.886 140.223 767.073 133.223 764.573C126.223 762.073 123.772 760.903 122.223 755.573C121.46 752.948 121.79 751.272 122.223 748.573C123.279 741.992 131.223 734.073 131.223 734.073C131.223 734.073 141.529 724.817 149.223 720.573C159.821 714.727 176.223 711.573 178.723 711.073C181.223 710.573 195.723 709.573 212.223 711.073C228.723 712.573 250.223 725.573 250.223 725.573C250.223 725.573 265.202 735.88 268.723 746.073Z" fill="#F8C683" stroke="#F8C683"/>
<path d="M327.223 749.573C327.549 747.937 327.531 747.091 328.223 745.573C329.46 742.861 330.525 741.523 332.223 739.073C334.332 736.031 336.045 734.292 338.619 731.678L338.723 731.573C341.548 728.705 343.377 727.311 346.723 725.073C350.571 722.5 353.026 721.526 357.223 719.573C361.431 717.615 363.826 716.559 368.223 715.073C372.441 713.647 374.863 712.975 379.223 712.073C383.09 711.273 384.785 710.872 388.723 710.573C392.812 710.262 395.623 709.998 399.723 710.073C404.608 710.162 407.366 710.045 412.223 710.573C417.553 711.152 420.539 711.704 425.723 713.073C430.917 714.444 433.739 715.568 438.723 717.573C443.505 719.497 445.839 720.36 450.223 723.073C454.242 725.561 456.645 726.984 460.223 730.073C462.629 732.151 463.818 733.528 465.723 736.073C467.189 738.032 468.964 740.475 470.223 742.573C471.723 745.073 471.723 745.573 472.723 748.573C473.43 750.694 473.859 752.521 473.223 754.573C472.757 756.077 472.193 757.333 471.223 758.573C469.493 760.783 468.045 761.644 465.723 762.573C460.723 764.573 460.022 764.904 455.223 766.073C450.232 767.288 447.723 767.74 441.223 768.573C435.289 769.333 431.952 769.782 425.977 770.073C415.723 770.573 409.976 770.573 399.723 770.573C389.96 770.573 385.223 770.647 375.223 770.073C367.58 769.635 362.723 769.073 354.723 768.073C349.783 767.456 347.723 767.073 342.723 766.073C338.203 765.169 336.133 764.536 332.723 762.073C330.484 760.456 329.366 759.587 328.223 757.073C327.088 754.578 326.687 752.261 327.223 749.573Z" fill="#F8C683" stroke="#F8C683"/>
<path d="M270.223 1.07296C264.324 5.94309 268.223 16.0729 286.223 48.073C287.35 49.3098 287.84 50.1583 289.723 50.5729C293.056 51.4027 295.293 50.9945 298.723 51.0729C298.723 51.0729 305.745 50.1661 308.223 49.5729C310.701 48.9798 310.988 47.8799 311.723 46.073C291.316 10.6197 282.05 -0.00275183 270.223 1.07296Z" fill="#464C52" stroke="#464C52"/>
<path d="M401.723 174.073C353.113 178.392 339.956 203.289 335.088 278.073V282.073H255.723C262.723 213.073 229.138 172.878 178.223 174.073C128.836 188.342 112.485 222.237 109.223 282.073C111.637 347.595 129.583 372.899 178.223 406.573L167.223 436.073C195.611 450.409 206.678 460.605 266.223 461.073H334.723C386.436 455.615 398.979 446.456 428.723 434.073L419.223 402.573C465.684 370.109 480.081 344.196 481.723 282.073C477.102 224.397 459.707 178.299 401.723 174.073Z" fill="#FEF9EA" stroke="#FEF9EA"/>
<path d="M298.723 694.573C129.65 684.693 99.9543 592.385 177.723 403.073L151.723 385.073L443.723 381.073L421.723 399.573C492.393 613.403 462.928 681.02 298.723 694.573Z" fill="#FEF8E9" stroke="#FEF8E9"/>
<path d="M245.723 306.073C243.992 303.852 241.723 300.073 241.723 300.073C241.723 300.073 245.891 297.724 248.723 296.573C251.755 295.341 254.193 294.159 261.223 293.573C268.252 292.987 270.723 292.573 278.223 292.573H299.223H308.223H325.723C332.08 292.573 336.332 292.204 341.723 295.573C344.418 297.258 347.723 301.073 347.723 301.073C347.723 301.073 345.177 305.183 343.223 307.573C340.776 310.566 339.764 311.685 336.723 314.073C333.008 316.989 330.53 318.636 326.223 320.573C321.718 322.599 319.478 323.235 314.723 324.573C310.665 325.715 308.914 326.126 304.723 326.573C301.228 326.946 299.118 327.231 294.223 327.073C289.328 326.915 286.543 326.94 281.723 326.073C276.311 325.1 273.322 324.132 268.223 322.073C262.472 319.751 259.126 318.371 254.223 314.573C250.512 311.698 248.608 309.776 245.723 306.073Z" fill="#E28B55" stroke="#E28B55"/>
<path d="M248.223 303.573C245.624 302.324 241.223 299.573 241.223 299.573C241.223 299.573 241.389 297.611 241.723 296.073C242.649 291.806 244.135 289.59 246.723 286.073C249.014 282.959 251.191 280.971 254.223 278.573C257.112 276.287 258.502 275.361 261.723 273.573C264.395 272.09 266.385 271.208 269.223 270.073C272.436 268.788 274.381 268.469 277.723 267.573C280.056 266.948 280.34 266.965 282.723 266.573C285.762 266.073 288.177 265.573 290.723 265.573H299.723C301.88 265.573 307.596 266.214 309.723 266.573C313.985 267.293 315.75 268.37 319.723 270.073C324.388 272.073 326.723 273.573 330.723 276.073C334.603 278.498 337.082 280.246 340.223 283.573C342.609 286.101 344.223 288.073 345.723 290.573C347.223 293.073 348.223 295.206 348.223 296.573V301.073C348.223 301.073 346.153 302.192 344.723 303.073C342.864 304.218 341.736 304.729 339.723 305.573C337.491 306.509 336.155 306.886 333.866 307.533L333.723 307.573C332.173 308.011 331.293 308.216 329.723 308.573C327.781 309.015 326.681 309.211 324.723 309.573C322.387 310.005 321.071 310.217 318.723 310.573C315.802 311.016 314.161 311.255 311.223 311.573C298.41 312.96 291.036 312.455 278.223 311.073C274.105 310.629 271.797 310.32 267.723 309.573C263.39 308.778 260.911 308.44 256.723 307.073C253.31 305.959 251.459 305.128 248.223 303.573Z" fill="#F9C378" stroke="#F9C378"/>
<path d="M189.223 235.073C215.493 235.676 218.214 290.101 189.223 294.073C160.262 290.704 162.953 234.47 189.223 235.073Z" fill="black" stroke="black"/>
<path d="M402.447 235.078C428.717 235.681 431.438 290.106 402.447 294.078C373.486 290.709 376.177 234.475 402.447 235.078Z" fill="black" stroke="black"/>
<path d="M276.223 42.0729C279.299 44.2196 283.723 48.073 283.723 48.073L282.723 54.073C282.723 54.073 281.477 56.4556 280.223 57.573C279.047 58.6201 278.198 59.0232 276.723 59.573C274.155 60.5299 272.441 60.4231 269.723 60.0729C266.163 59.6143 264.525 58.3626 261.223 56.5729C257.688 54.6571 255.584 53.2803 252.223 51.0729C248.272 48.4779 245.755 46.7147 242.223 43.5729C238.716 40.4527 234.723 35.0729 234.723 35.0729C234.723 35.0729 231.723 28.5729 235.223 26.0729C238.723 23.5729 240.723 23.5729 242.223 24.0729C244.514 24.8367 245.082 25.3269 246.723 26.0729C252.223 28.5729 253.659 29.51 258.723 32.0729C265.58 35.5429 269.921 37.6746 276.223 42.0729Z" fill="#464C52" stroke="#464C52"/>
</svg>
