<svg width="32" height="32" viewBox="0 0 32 32" fill="none" xmlns="http://www.w3.org/2000/svg">
<mask id="mask0_46_5" style="mask-type:alpha" maskUnits="userSpaceOnUse" x="0" y="0" width="32" height="32">
<rect width="32" height="32" rx="4" fill="#D9D9D9"/>
</mask>
<g mask="url(#mask0_46_5)">
<rect width="32" height="32" fill="#B4DAED"/>
<path d="M13.4055 31.7255C13.3689 32.2695 13.488 32.5846 13.6826 33.094C13.777 33.3411 13.8602 33.4666 13.974 33.7054C14.0878 33.9442 14.1495 34.079 14.2653 34.3168C14.4466 34.6891 14.556 34.8987 14.7453 35.27C14.9392 35.6503 15.0321 35.8839 15.2287 36.2627C15.4141 36.6199 15.5117 36.8236 15.7053 37.1765C15.8735 37.4831 15.926 37.6799 16.1682 37.9322C16.2743 38.0428 16.3416 38.0989 16.4685 38.1848C16.5982 38.2727 16.6766 38.3168 16.8228 38.3731C16.9827 38.4347 17.0789 38.4586 17.2494 38.4756C17.4267 38.4933 17.5105 38.5005 17.6872 38.4776C17.8652 38.4546 17.969 38.4445 18.1362 38.3793C18.2783 38.3239 18.3693 38.2881 18.4995 38.2087C18.6355 38.1258 18.6972 38.0684 18.8164 37.9626C18.9474 37.8464 19.0557 37.7333 19.1626 37.5946C19.2498 37.4816 19.2649 37.4248 19.3363 37.3012C19.428 37.1423 19.4596 37.0419 19.5177 36.8678C19.5999 36.6217 19.6257 36.4761 19.6607 36.219C19.7059 35.887 19.6877 35.6965 19.6863 35.3614C19.6842 34.8659 19.6778 34.5862 19.6169 34.0944C19.5663 33.6855 19.5467 33.4573 19.4675 33.053C19.382 32.6168 19.3133 32.3706 19.1928 31.9428C19.0823 31.5508 19 31.3364 18.8493 30.958L18.8462 30.9502C18.7484 30.7044 18.6831 30.5404 18.5545 30.3071C18.466 30.1463 18.4422 30.0687 18.3231 29.9292C18.0497 29.6089 17.8103 29.4757 17.4325 29.2898C17.0163 29.0851 16.7503 29.0027 16.2894 28.9507C15.7084 28.8852 15.3233 28.9523 14.8238 29.256C14.3469 29.5461 14.1836 29.8669 13.9036 30.3498C13.617 30.8441 13.4439 31.1554 13.4055 31.7255Z" fill="#464C52" stroke="#464C52" stroke-width="0.845506"/>
<path d="M1.57856 21.2423C1.07495 21.4514 0.738298 21.4396 0.193418 21.4185C-0.0708877 21.4083 -0.216487 21.3697 -0.479136 21.3384C-0.741785 21.3072 -0.889315 21.2919 -1.15169 21.2584C-1.56244 21.206 -1.79605 21.1695 -2.20845 21.1092C-2.63082 21.0475 -2.88179 21.0343 -3.30371 20.9695C-3.70149 20.9084 -3.9257 20.8812 -4.32197 20.8109C-4.66633 20.7499 -4.86962 20.7631 -5.18625 20.6146C-5.32497 20.5495 -5.39972 20.5038 -5.52176 20.4111C-5.64656 20.3164 -5.71344 20.2562 -5.81367 20.1358C-5.92324 20.0041 -5.97671 19.9206 -6.04745 19.7646C-6.12102 19.6023 -6.15475 19.5252 -6.18971 19.3505C-6.22493 19.1745 -6.2486 19.073 -6.24044 18.8937C-6.2335 18.7414 -6.22878 18.6437 -6.19531 18.4949C-6.16031 18.3395 -6.12571 18.2626 -6.06375 18.1158C-5.99565 17.9545 -5.92319 17.8157 -5.82613 17.6699C-5.74704 17.5511 -5.698 17.5186 -5.60382 17.4114C-5.48273 17.2736 -5.39771 17.2114 -5.25147 17.1006C-5.04467 16.9439 -4.915 16.8728 -4.68268 16.7572C-4.3827 16.608 -4.19639 16.5642 -3.87857 16.4582C-3.40847 16.3014 -3.14146 16.2178 -2.65608 16.1178C-2.25254 16.0347 -2.03014 15.9801 -1.62175 15.9256C-1.1812 15.8668 -0.926003 15.8529 -0.482133 15.83C-0.0753431 15.809 0.154096 15.8182 0.560862 15.8397L0.569165 15.8402C0.833375 15.8541 1.00965 15.8634 1.27192 15.9103C1.45252 15.9427 1.53368 15.9404 1.70405 16.0085C2.09504 16.1648 2.29794 16.3488 2.59509 16.6472C2.92243 16.9758 3.08571 17.2014 3.28267 17.6213C3.53092 18.1506 3.59081 18.5369 3.46316 19.1074C3.34128 19.6522 3.08969 19.9096 2.72201 20.3296C2.34567 20.7595 2.10624 21.0233 1.57856 21.2423Z" fill="#464C52" stroke="#464C52" stroke-width="0.845506"/>
<path d="M2.27098 16.6708C2.63711 16.4835 2.82355 16.2985 3.22999 16.2356C3.72907 16.1583 4.15155 16.1351 4.73766 16.1935C5.50749 16.2702 5.91839 16.4601 6.64871 16.7154C7.29899 16.9426 7.66778 17.0734 8.2746 17.3994C9.11615 17.8515 9.2252 17.9505 10.2589 18.8299L12.906 21.0818C13.9398 21.9612 14.8302 22.522 15.8947 23.6242C16.5646 24.318 17.0084 24.6719 17.4976 25.5031C17.8974 26.1823 18.1091 26.5972 18.2646 27.3698C18.4114 28.0996 18.4431 28.5454 18.299 29.2757C18.239 29.5801 18.1782 29.751 18.0779 30.0334L18.0649 30.07C17.8898 30.5631 17.7375 30.903 17.5347 31.3853C17.2498 32.0628 17.1715 32.2313 16.9383 32.8649C16.7326 33.424 16.6128 33.6873 16.3932 34.241C16.2324 34.6465 16.1484 34.9834 15.9475 35.3705C15.7941 35.666 15.6896 35.8218 15.5094 36.1017C15.2122 36.5634 14.6868 37.2417 14.6868 37.2417C14.6868 37.2417 14.1974 37.9468 13.8428 38.3636C13.4882 38.7804 13.4045 38.9294 13.0256 39.3242C12.5668 39.8022 12.1481 40.1251 11.6103 40.512C11.1186 40.8658 10.8056 41.0203 10.2703 41.2845L10.2422 41.2984C9.6804 41.5758 9.36319 41.7419 8.76101 41.915C8.21552 42.0717 7.89531 42.1175 7.33013 42.1696C6.83593 42.215 6.55371 42.2379 6.05951 42.1925C5.57859 42.1483 5.30645 42.0734 4.85377 41.9489L4.80608 41.9357C4.11179 41.7448 3.74244 41.5686 3.08301 41.2794C2.41203 40.9852 2.03803 40.8092 1.40487 40.4406C0.682037 40.0197 0.311671 39.7258 -0.362817 39.2312C-1.18407 38.6289 -1.63133 38.2714 -2.40261 37.6063C-3.04134 37.0555 -3.38629 36.7309 -3.99187 36.1439C-4.52834 35.6238 -4.83899 35.3401 -5.33453 34.7809C-5.91254 34.1287 -6.26821 33.7746 -6.70906 33.0228C-7.09041 32.3725 -7.22736 31.9639 -7.48779 31.2565C-7.6934 30.6979 -7.83721 30.3877 -7.94311 29.802C-8.05749 29.1695 -8.04928 28.7996 -8.01611 28.1577C-7.96931 27.252 -7.88257 26.7323 -7.5838 25.8761C-7.29164 25.0387 -7.00075 24.6164 -6.53338 23.8627C-6.12813 23.2092 -5.87263 22.8583 -5.39024 22.2595C-4.85428 21.5941 -4.52375 21.2429 -3.90968 20.6488C-3.41683 20.1721 -3.14615 19.8921 -2.59161 19.4887C-2.00095 19.0591 -1.61195 18.9059 -0.977863 18.5434C-0.247188 18.1257 0.179208 17.921 0.906066 17.4967C1.44411 17.1826 1.71637 16.9547 2.27098 16.6708Z" fill="#464C52" stroke="#464C52" stroke-width="0.845506"/>
<path d="M3.88634 12.0469C3.26334 13.9125 2.97269 14.9244 3.15745 16.3208C6.88709 23.4171 10.3599 26.1172 18.3023 29.3151C19.8766 28.9513 20.7622 28.6462 22.3518 27.7557C28.7558 23.3421 30.4153 15.0764 23.8728 8.40668C22.7661 7.56369 22.1496 7.15211 21.0569 6.52629C14.0449 2.52021 7.28054 5.58017 3.88634 12.0469Z" fill="#464C52" stroke="#464C52" stroke-width="0.845506"/>
<path d="M23.7899 4.91421C23.3611 4.90788 23.1597 5.48199 22.7659 7.502C22.7691 7.59575 22.7592 7.64977 22.8245 7.73586C22.9367 7.89236 23.047 7.95617 23.1906 8.08409C23.1906 8.08409 23.5233 8.30042 23.6507 8.3651C23.778 8.42978 23.8303 8.39325 23.9272 8.34279C24.3437 6.08792 24.3339 5.29786 23.7899 4.91421Z" fill="#464C52" stroke="#464C52" stroke-width="0.845506"/>
<path d="M23.5817 16.8335C21.3023 15.2252 19.7885 15.8442 16.7497 18.9868L16.5985 19.1645L13.1436 16.2253C16.0565 13.4187 16.1138 10.389 13.8521 8.55647C11.1628 7.3615 9.16982 8.26201 6.76603 10.7999C4.39443 13.8007 4.21916 15.5896 5.06373 18.8872L3.46979 19.7906C4.16368 21.4789 4.2601 22.3418 6.83453 24.5677L9.81652 27.1045C12.274 28.7771 13.1663 28.8347 14.9292 29.386L15.7063 27.6345C18.956 27.9126 20.5622 27.2945 22.9819 24.595C24.9609 21.8611 25.9461 19.1686 23.5817 16.8335Z" fill="#FEF9EA" stroke="#FEF9EA" stroke-width="0.845506"/>
<path d="M-0.0518673 35.6686C-6.75968 29.2069 -4.52058 24.055 5.87892 18.4295L5.4692 16.7049L17.8487 26.9305L16.2294 26.9672C11.1213 38.9684 7.33619 40.9176 -0.0518673 35.6686Z" fill="#FEF8E9" stroke="#FEF8E9" stroke-width="0.845506"/>
<path d="M11.6661 17.0461C11.6729 16.8884 11.7132 16.6447 11.7132 16.6447C11.7132 16.6447 11.9765 16.6958 12.1392 16.7495C12.3135 16.807 12.4605 16.8451 12.7819 17.0754C13.1033 17.3057 13.2238 17.3778 13.544 17.6502L14.4406 18.4129L14.8249 18.7398L15.572 19.3754C15.8434 19.6063 16.0384 19.745 16.1462 20.0847C16.2001 20.2545 16.2026 20.5374 16.2026 20.5374C16.2026 20.5374 15.9446 20.6204 15.7744 20.6515C15.5612 20.6904 15.4773 20.7014 15.2608 20.6929C14.9962 20.6825 14.8306 20.6628 14.5764 20.589C14.3104 20.5119 14.1917 20.4577 13.9401 20.3421C13.7254 20.2435 13.6357 20.1975 13.4405 20.0643C13.2778 19.9533 13.1773 19.8888 12.9741 19.7043C12.7708 19.5198 12.651 19.4197 12.4767 19.2076C12.281 18.9695 12.1885 18.8196 12.0456 18.5465C11.8844 18.2384 11.7917 18.058 11.7203 17.7178C11.6662 17.4602 11.6548 17.309 11.6661 17.0461Z" fill="#E28B55" stroke="#E28B55" stroke-width="0.845506"/>
<path d="M11.8637 17.0302C11.7981 16.8825 11.7102 16.6052 11.7102 16.6052C11.7102 16.6052 11.7885 16.5275 11.8586 16.4739C12.0531 16.3254 12.1971 16.2847 12.4353 16.2286C12.6462 16.1789 12.8114 16.173 13.0279 16.1808C13.2343 16.1881 13.3273 16.199 13.5297 16.2397C13.6977 16.2734 13.8147 16.308 13.9771 16.3627C14.1609 16.4245 14.2556 16.4815 14.4308 16.5647C14.5531 16.6227 14.5646 16.6338 14.6806 16.7036C14.8285 16.7926 14.9498 16.859 15.0585 16.9514L15.4427 17.2783C15.5348 17.3567 15.7556 17.5917 15.8333 17.6842C15.9891 17.8698 16.0254 17.9799 16.1332 18.1969C16.2597 18.4517 16.3049 18.6006 16.3849 18.8526C16.4625 19.097 16.5048 19.2617 16.5181 19.5178C16.5281 19.7124 16.5254 19.8552 16.4986 20.0165C16.4719 20.1777 16.4371 20.3051 16.3875 20.3634L16.224 20.5556C16.224 20.5556 16.095 20.5282 16.0019 20.5138C15.881 20.4952 15.8143 20.476 15.6977 20.439C15.5684 20.3979 15.4976 20.3654 15.3764 20.3099L15.3689 20.3064C15.2868 20.2688 15.2418 20.2456 15.1618 20.2038C15.0628 20.1522 15.0087 20.1206 14.912 20.0649C14.7966 19.9985 14.7327 19.9598 14.6195 19.8897C14.4786 19.8025 14.3999 19.7531 14.2629 19.66C13.6655 19.2539 13.369 18.9644 12.8722 18.44C12.7125 18.2715 12.6252 18.1745 12.4784 17.9946C12.3222 17.8033 12.2287 17.6989 12.0995 17.4884C11.9943 17.3169 11.9454 17.2141 11.8637 17.0302Z" fill="#F9C378" stroke="#F9C378" stroke-width="0.845506"/>
<path d="M9.15105 11.9308C9.29764 12.5306 10.5026 12.7514 10.5026 12.7514C10.5026 12.7514 10.706 14.0022 11.2556 13.9483C11.8701 13.8881 11.469 12.8707 11.1011 12.3748C10.6358 11.7475 8.96563 11.172 9.15105 11.9308Z" fill="black" stroke="black" stroke-width="0.5"/>
<path d="M18.6274 20.1883C18.774 20.7882 19.9789 21.0089 19.9789 21.0089C19.9789 21.0089 20.1823 22.2598 20.7319 22.2059C21.3464 22.1457 20.9453 21.1283 20.5775 20.6324C20.1121 20.0051 18.442 19.4296 18.6274 20.1883Z" fill="black" stroke="black" stroke-width="0.5"/>
<path d="M22.5571 6.88244C22.6105 7.08581 22.6594 7.41101 22.6594 7.41101L22.3988 7.63086C22.3988 7.63086 22.259 7.68734 22.1649 7.68949C22.0767 7.69151 22.0258 7.67787 21.9428 7.64776C21.7984 7.59534 21.7292 7.52854 21.6258 7.41486C21.4905 7.26596 21.466 7.15305 21.39 6.9567C21.3087 6.74652 21.2689 6.6113 21.2056 6.39499C21.1311 6.14071 21.0877 5.97398 21.051 5.71157C21.0146 5.45097 21.0395 5.07626 21.0395 5.07626C21.0395 5.07626 21.1475 4.68979 21.3878 4.71017C21.628 4.73056 21.7134 4.8032 21.7593 4.87903C21.8294 4.99486 21.8358 5.0364 21.8788 5.12786C22.0228 5.43436 22.05 5.52651 22.1732 5.81988C22.3399 6.21708 22.4478 6.46577 22.5571 6.88244Z" fill="#464C52" stroke="#464C52" stroke-width="0.845506"/>
</g>
</svg>
